<?xml version="1.0" encoding="UTF-8" standalone="yes"?>
<!DOCTYPE svg PUBLIC "-//W3C//DTD SVG 1.1//EN" "http://www.w3.org/Graphics/SVG/1.1/DTD/svg11.dtd">

<svg width="500" height="500" viewBox="0 0 500 500" xmlns="http://www.w3.org/2000/svg" xmlns:xlink="http://www.w3.org/1999/xlink" version="1.1" baseProfile="full">
    <g transform="scale(1.000000,-1.000000) translate(0,-500)">
        <path d="M 469.780100 273.527400 L 474.894900 273.642800 L 479.141200 273.867500 L 482.536000 274.238000 L 485.096800 274.790600 L 486.840500 275.562000 L 487.411300 276.041000 L 487.784400 276.588400 L 487.961700 277.208600 L 487.945600 277.906300 L 487.341300 279.552200 L 485.988800 281.562500 L 483.905100 283.973600 L 481.107500 286.822000 L 477.613200 290.144200 L 468.602900 298.355400 L 272.010600 476.001900 L 262.869800 484.164600 L 259.065700 487.371300 L 255.664800 489.995000 L 252.586500 492.035700 L 249.750200 493.493300 L 247.075200 494.367900 L 244.480800 494.659400 L 241.886500 494.367900 L 239.211500 493.493300 L 236.375200 492.035700 L 233.296900 489.995000 L 229.896000 487.371300 L 226.091800 484.164600 L 216.951100 476.001900 L 20.358800 298.355400 L 11.348500 290.144200 L 7.854200 286.822000 L 5.056600 283.973600 L 2.972900 281.562500 L 1.620400 279.552200 L 1.016100 277.906300 L 1.000000 277.208600 L 1.177300 276.588400 L 1.550400 276.041000 L 2.121200 275.562000 L 3.864900 274.790600 L 6.425600 274.238000 L 9.820500 273.867500 L 14.066800 273.642800 L 19.181600 273.527400 L 32.085500 273.478800 L 44.017500 273.478800 L 44.017500 1.000000 L 440.156900 1.000000 L 440.156900 273.478800 L 456.876200 273.478800 Z" transform="scale(1.000000,1.000000) translate(5.519150,2.170296)" fill="#ffffff" opacity="1.000000"></path>
    </g>
</svg>