<?xml version="1.0" encoding="UTF-8" standalone="yes"?>
<!DOCTYPE svg PUBLIC "-//W3C//DTD SVG 1.1//EN" "http://www.w3.org/Graphics/SVG/1.1/DTD/svg11.dtd">

<svg width="500" height="500" viewBox="0 0 500 500" xmlns="http://www.w3.org/2000/svg" xmlns:xlink="http://www.w3.org/1999/xlink" version="1.1" baseProfile="full">
    <g transform="scale(1.000000,-1.000000) translate(0,-500)">
        <path d="M 11.584700 6.222400 L 137.448500 68.323000 L 142.458200 70.794800 L 145.640200 73.976700 L 458.653900 386.990500 L 458.654600 386.989900 L 461.836600 390.171900 L 492.682000 421.017400 L 495.864000 424.199300 L 492.682000 427.381300 L 427.382000 492.681400 L 424.200000 495.863400 L 421.018000 492.681400 L 391.064400 462.727700 L 391.064400 462.727800 L 387.882400 459.545800 L 73.976800 145.640100 L 70.794800 142.458200 L 68.323000 137.448500 L 6.222500 11.584700 L 1.000000 1.000000 Z M 399.718400 458.653900 L 424.199900 483.135400 L 483.136100 424.199300 L 458.654600 399.717800 Z M 83.522600 142.458100 L 391.064400 449.999800 L 449.999800 391.064300 L 142.458100 83.522600 Z M 73.032500 128.895600 L 128.895600 73.032500 L 18.626200 18.626100 Z" transform="scale(1.000000,1.000000) translate(-0.939300,-0.724000)" fill="#ffffff" opacity="1.000000"></path>
    </g>
</svg>