<?xml version="1.0" encoding="UTF-8" standalone="yes"?>
<!DOCTYPE svg PUBLIC "-//W3C//DTD SVG 1.1//EN" "http://www.w3.org/Graphics/SVG/1.1/DTD/svg11.dtd">

<svg width="500" height="500" viewBox="0 0 500 500" xmlns="http://www.w3.org/2000/svg" xmlns:xlink="http://www.w3.org/1999/xlink" version="1.1" baseProfile="full">
    <g transform="scale(1.000000,-1.000000) translate(0,-500)">
        <path d="M 450.229333 250.229333 L 499.458667 269.844107 C 497.916342 289.441205 494.068024 308.788003 487.993463 327.483582 L 435.005240 326.766020 C 424.954299 351.031138 410.222407 373.078973 391.650690 391.650690 L 412.591346 440.330825 C 397.643517 453.097477 381.242093 464.056558 363.726958 472.980964 L 326.766020 435.005240 C 302.500902 445.056181 276.493708 450.229333 250.229333 450.229333 L 230.614560 499.458667 C 211.017462 497.916342 191.670664 494.068024 172.975085 487.993463 L 173.692647 435.005240 C 149.427529 424.954299 127.379694 410.222407 108.807977 391.650690 L 60.127842 412.591346 C 47.361190 397.643517 36.402109 381.242093 27.477702 363.726958 L 65.453427 326.766020 C 55.402486 302.500902 50.229333 276.493708 50.229333 250.229333 L 1.000000 230.614560 C 2.542325 211.017462 6.390642 191.670664 12.465204 172.975085 L 65.453427 173.692647 C 75.504368 149.427529 90.236260 127.379694 108.807977 108.807977 L 87.867321 60.127842 C 102.815150 47.361190 119.216574 36.402109 136.731708 27.477702 L 173.692647 65.453427 C 197.957765 55.402486 223.964959 50.229333 250.229333 50.229333 L 269.844107 1.000000 C 289.441205 2.542325 308.788003 6.390642 327.483582 12.465204 L 326.766020 65.453427 C 351.031138 75.504368 373.078973 90.236260 391.650690 108.807977 L 440.330825 87.867321 C 453.097477 102.815150 464.056558 119.216574 472.980964 136.731708 L 435.005240 173.692647 C 445.056181 197.957765 450.229333 223.964959 450.229333 250.229333 M 370.229333 250.229333 L 370.229333 250.229333 C 370.229333 183.955163 316.503503 130.229333 250.229333 130.229333 C 183.955163 130.229333 130.229333 183.955163 130.229333 250.229333 C 130.229333 316.503503 183.955163 370.229333 250.229333 370.229333 C 316.503503 370.229333 370.229333 316.503503 370.229333 250.229333" transform="scale(1.000000,1.000000) translate(-0.229333,-0.229333)" fill="#ffffff" opacity="1.000000"></path>
    </g>
</svg>